<?xml version="1.0" standalone="no"?>
<!DOCTYPE svg PUBLIC "-//W3C//DTD SVG 20010904//EN"
 "http://www.w3.org/TR/2001/REC-SVG-20010904/DTD/svg10.dtd">
<svg version="1.0" xmlns="http://www.w3.org/2000/svg"
 width="512.000000pt" height="512.000000pt" viewBox="0 0 512.000000 512.000000"
 preserveAspectRatio="xMidYMid meet">

<g transform="translate(0.000000,512.000000) scale(0.100000,-0.100000)"
fill="#000000" stroke="none">
<path d="M1810 4506 l0 -303 -77 -13 c-171 -27 -355 -101 -515 -206 l-101 -66
-259 259 -258 258 -107 -108 -108 -107 259 -259 258 -258 -57 -84 c-105 -155
-188 -361 -215 -531 l-13 -78 -308 0 -309 0 0 -150 0 -150 309 0 308 0 13 -77
c17 -108 73 -279 127 -383 l44 -88 -40 -53 c-48 -63 -93 -152 -116 -229 -24
-80 -26 -82 -91 -100 -252 -69 -444 -260 -525 -520 -34 -108 -34 -292 0 -400
87 -281 301 -476 583 -534 68 -14 227 -16 1348 -16 1369 0 1340 -1 1474 51
176 69 343 235 419 415 89 210 67 479 -53 672 l-39 62 340 0 c431 0 498 12
664 115 163 102 289 276 336 465 20 80 18 280 -4 355 -79 268 -279 473 -525
536 -29 7 -56 18 -61 24 -4 5 -15 37 -25 70 -63 209 -227 390 -429 474 -40 16
-89 32 -110 36 -45 9 -44 7 -80 115 -65 195 -227 371 -412 448 -108 45 -166
56 -295 56 -180 0 -318 -44 -449 -144 l-53 -41 -88 44 c-104 54 -275 110 -382
127 l-78 13 0 303 0 304 -150 0 -150 0 0 -304z m398 -626 c86 -23 210 -70 249
-95 21 -14 22 -16 6 -52 -9 -21 -21 -58 -27 -82 -13 -51 -16 -52 -111 -81
-208 -63 -412 -267 -475 -475 -12 -38 -23 -76 -26 -83 -2 -7 -9 -14 -16 -16
-7 -3 -44 -14 -83 -26 -208 -64 -412 -267 -475 -473 -29 -98 -31 -100 -81
-113 -24 -6 -61 -18 -82 -27 -36 -16 -38 -15 -52 6 -25 39 -73 164 -96 254
-32 121 -33 369 -1 483 55 203 146 366 281 500 155 156 372 266 586 300 97 15
308 4 403 -20z m1044 19 c86 -19 158 -59 223 -124 98 -98 135 -198 135 -370
l0 -95 95 0 c169 0 266 -34 369 -130 106 -100 146 -202 146 -372 l0 -98 95 0
c173 0 273 -36 370 -134 139 -140 172 -343 84 -518 -60 -118 -179 -210 -307
-237 -35 -7 -241 -11 -611 -11 l-557 0 -14 52 c-52 206 -224 401 -428 488 -37
15 -84 31 -105 35 -45 9 -44 7 -80 115 -67 202 -229 374 -427 454 -35 14 -68
26 -74 26 -6 0 -17 4 -24 9 -23 14 34 117 103 187 97 98 194 134 363 134 l102
0 0 95 c0 174 36 273 135 370 113 112 258 156 407 124z m-1200 -1200 c87 -18
158 -58 223 -123 99 -99 135 -199 135 -371 l0 -95 95 0 c172 0 272 -37 370
-135 98 -98 135 -198 135 -370 l0 -95 95 0 c172 0 272 -37 370 -135 139 -139
172 -342 84 -517 -60 -118 -179 -210 -307 -237 -76 -16 -2510 -16 -2584 0 -83
18 -156 58 -225 122 -189 177 -189 457 1 635 105 98 201 132 371 132 l95 0 0
95 c0 173 36 273 134 370 99 99 199 135 371 135 l95 0 0 95 c0 172 37 272 135
370 110 111 257 155 407 124z"/>
</g>
</svg>
